<svg width="1496" height="307" viewBox="0 0 1496 307" fill="none" xmlns="http://www.w3.org/2000/svg">
<mask id="mask0_6270_10667" style="mask-type:alpha" maskUnits="userSpaceOnUse" x="0" y="0" width="1496" height="307">
<path d="M0 0H1496V307H0V0Z" fill="url(#paint0_linear_6270_10667)"/>
</mask>
<g mask="url(#mask0_6270_10667)">
<path d="M1522.18 398.773C1463.62 369.292 1405.88 337.402 1349.25 302.956H1416.01C1284.91 223.211 1159.73 129.819 1043.69 21.6539H1099.33C1083.45 6.85596 1067.68 -8.1311 1052.15 -23.4882C976.279 -98.5386 906.623 -177.469 843.157 -259.639H887.666C818.051 -349.776 755.962 -443.833 701.282 -540.941H734.664C683.256 -632.236 638.418 -726.22 600.223 -822.242H622.478C589.418 -905.341 561.278 -989.945 538.109 -1075.61L566.117 -1103.54C600.586 -1007.74 641.542 -913.768 688.869 -822.242H666.615C716.679 -725.455 773.914 -631.422 838.377 -540.941H804.995C875.022 -442.649 953.547 -348.542 1040.6 -259.639H996.093C1005 -250.547 1013.97 -241.487 1023.05 -232.501C1119.1 -137.49 1221.92 -52.9114 1329.7 21.6622H1274.07C1402.01 110.179 1536.99 184.53 1676.08 245.268L1522.18 398.781V398.773ZM1494.17 426.708C1355.06 365.97 1220.09 291.619 1092.15 203.102H1147.78C1040.01 128.528 937.194 43.9497 841.138 -51.0616C832.055 -60.0472 823.079 -69.1069 814.177 -78.1995H858.686C771.63 -167.103 693.106 -261.21 623.079 -359.501H656.461C591.997 -449.982 534.763 -544.007 484.699 -640.803H506.953C459.618 -732.328 418.67 -826.304 384.201 -922.104L356.193 -894.169C379.362 -808.505 407.502 -723.901 440.562 -640.803H418.307C456.51 -544.78 501.349 -450.796 552.748 -359.501H519.366C574.046 -262.393 636.143 -168.336 705.75 -78.1995H661.241C724.707 3.97046 794.363 82.9094 870.233 157.952C885.762 173.309 901.529 188.296 917.412 203.094H861.776C977.82 311.25 1103 404.651 1234.1 484.395H1167.34C1223.97 518.842 1281.71 550.731 1340.26 580.212L1494.17 426.7V426.708ZM1858 63.8119C1718.89 3.07434 1583.93 -71.2773 1455.98 -159.794H1511.62C1403.84 -234.368 1301.03 -318.946 1204.97 -413.958C1195.89 -422.943 1186.91 -432.003 1178.01 -441.096H1222.52C1135.46 -529.999 1056.94 -624.105 986.911 -722.397H1020.29C955.83 -812.878 898.595 -906.903 848.531 -1003.7H870.785C823.45 -1095.22 782.502 -1189.2 748.033 -1285L720.025 -1257.06C743.194 -1171.4 771.334 -1086.8 804.394 -1003.7H782.139C820.342 -907.676 865.181 -813.692 916.58 -722.397H883.198C937.878 -625.289 999.975 -531.232 1069.58 -441.096H1025.07C1088.54 -358.926 1158.19 -279.987 1234.07 -204.944C1249.59 -189.587 1265.36 -174.6 1281.24 -159.802H1225.61C1341.65 -51.6454 1466.83 41.7545 1597.93 121.499H1531.17C1587.8 155.946 1645.54 187.835 1704.09 217.316L1858 63.8036V63.8119ZM947.983 971.487C808.877 910.75 673.91 836.398 545.964 747.882H601.6C493.823 673.308 391.009 588.729 294.953 493.718C285.87 484.732 276.894 475.673 267.992 466.58H312.501C225.445 377.677 146.921 283.57 76.8943 185.279H110.276C45.8125 94.7971 -11.4221 0.772339 -61.4859 -96.0229H-39.2316C-86.5672 -187.548 -127.515 -281.524 -161.984 -377.324L-190 -349.381C-166.831 -263.717 -138.692 -179.114 -105.632 -96.0146H-127.886C-89.6828 0.0078125 -44.8447 93.9915 6.55438 185.287H-26.827C27.8525 282.395 89.9501 376.452 159.556 466.588H115.048C178.514 548.758 248.169 627.697 324.04 702.74C339.568 718.097 355.336 733.084 371.219 747.882H315.583C431.627 856.038 556.803 949.438 687.905 1029.18H621.142C677.775 1063.63 735.513 1095.52 794.066 1125L947.975 971.487H947.983ZM1311.81 608.592C1172.71 547.854 1037.74 473.502 909.796 384.986H965.432C857.655 310.412 754.841 225.833 658.785 130.822C649.702 121.836 640.726 112.777 631.824 103.684H676.333C589.277 14.7811 510.753 -79.3258 440.726 -177.617H474.108C409.645 -268.099 352.41 -362.124 302.346 -458.919H324.6C277.265 -550.444 236.317 -644.42 201.848 -740.22L173.84 -712.285C197.009 -626.621 225.149 -542.018 258.209 -458.919H235.954C274.157 -362.896 318.996 -268.913 370.395 -177.617H337.013C391.693 -80.5096 453.79 13.548 523.397 103.684H478.888C542.354 185.854 612.01 264.793 687.88 339.835C703.409 355.192 719.176 370.18 735.059 384.978H679.424C795.467 493.134 920.643 586.534 1051.75 666.279H984.983C1041.62 700.725 1099.35 732.615 1157.91 762.096L1311.81 608.583V608.592ZM1129.9 790.04C990.793 729.302 855.826 654.95 727.88 566.434H783.516C675.739 491.86 572.925 407.281 476.869 312.27C467.786 303.284 458.81 294.225 449.908 285.132H494.417C407.361 196.229 328.837 102.122 258.81 3.83057H292.192C227.729 -86.6509 170.494 -180.676 120.43 -277.471H142.684C95.3488 -368.996 54.401 -462.972 19.9317 -558.772L-8.07571 -530.837C15.0934 -445.173 43.2327 -360.57 76.2926 -277.471H54.0383C92.2414 -181.448 137.08 -87.4647 188.479 3.83057H155.097C209.777 100.938 271.874 194.996 341.481 285.132H296.972C360.438 367.302 430.094 446.241 505.964 521.283C521.493 536.641 537.26 551.627 553.143 566.425H497.508C613.551 674.582 738.727 767.982 869.829 847.727H803.067C859.699 882.173 917.437 914.063 975.99 943.544L1129.9 790.031V790.04Z" fill="url(#paint1_linear_6270_10667)"/>
</g>
<defs>
<linearGradient id="paint0_linear_6270_10667" x1="690.404" y1="-151.543" x2="816.569" y2="514.093" gradientUnits="userSpaceOnUse">
<stop offset="0.2" stop-color="#05F0FF"/>
<stop offset="0.81" stop-color="#7367FF"/>
<stop offset="1" stop-color="#963CFF"/>
</linearGradient>
<linearGradient id="paint1_linear_6270_10667" x1="717.5" y1="-2488.5" x2="2820.42" y2="-848.522" gradientUnits="userSpaceOnUse">
<stop offset="0.2" stop-color="#05F0FF"/>
<stop offset="0.81" stop-color="#7367FF"/>
<stop offset="1" stop-color="#963CFF"/>
</linearGradient>
</defs>
</svg>
